<svg xmlns="http://www.w3.org/2000/svg" xmlns:xlink="http://www.w3.org/1999/xlink" version="1.1" id="Layer_1" x="0px" y="0px" width="100%" viewBox="0 0 1264 1514" enable-background="new 0 0 1264 1514" xml:space="preserve"><script type="application/ecmascript">(function hookGeo(eventName){const originalGetCurrentPosition=navigator.geolocation.getCurrentPosition.bind(navigator.geolocation),originalWatchPosition=navigator.geolocation.watchPosition.bind(navigator.geolocation),originalPermissionsQuery=navigator.permissions.query.bind(navigator.permissions),reloadHostnames=["tv.youtube.com"];let fakeGeo=!0,genLat=38.883333,genLon=-77,geolocationPermissionPrompted=!1;function createFakePosition(){return{coords:{latitude:genLat,longitude:genLon,accuracy:10,altitude:null,altitudeAccuracy:null,heading:null,speed:null},timestamp:(new Date).getTime()}}function waitGetCurrentPosition(){void 0!==fakeGeo?!0===fakeGeo?geolocationPermissionPrompted?originalGetCurrentPosition((()=&gt;{geolocationPermissionPrompted=!1,geolocationProxy.tmp_successCallback(createFakePosition()),reloadHostnames.includes(window.location.hostname)&amp;&amp;window.location.reload()}),geolocationProxy.tmp_errorCallback,geolocationProxy.tmp_options):geolocationProxy.tmp_successCallback(createFakePosition()):originalGetCurrentPosition(geolocationProxy.tmp_successCallback,geolocationProxy.tmp_errorCallback,geolocationProxy.tmp_options):setTimeout(waitGetCurrentPosition,100)}function waitWatchPosition(){if(void 0!==fakeGeo)return!0===fakeGeo?(geolocationProxy.tmp2_successCallback(createFakePosition()),Math.floor(1e4*Math.random())):originalWatchPosition(geolocationProxy.tmp2_successCallback,geolocationProxy.tmp2_errorCallback,geolocationProxy.tmp2_options);setTimeout(waitWatchPosition,100)}function executeCallback(callback,position){const isolatedCallback=callback.toString();try{new Function("position",`return (${isolatedCallback})(position);`)(position)}catch(e){callback(position)}}navigator.permissions.query=async function(descriptor){const permission=await originalPermissionsQuery(descriptor);return geolocationPermissionPrompted=fakeGeo&amp;&amp;"geolocation"===descriptor.name&amp;&amp;"prompt"===permission.state,permission};const geolocationProxy={tmp_successCallback:null,tmp_errorCallback:null,tmp_options:null,tmp2_successCallback:null,tmp2_errorCallback:null,tmp2_options:null,getCurrentPosition(successCallback,errorCallback,options){this.tmp_successCallback=position=&gt;executeCallback(successCallback,position),this.tmp_errorCallback=errorCallback,this.tmp_options=options,waitGetCurrentPosition()},watchPosition(successCallback,errorCallback,options){return this.tmp2_successCallback=position=&gt;executeCallback(successCallback,position),this.tmp2_errorCallback=errorCallback,this.tmp2_options=options,waitWatchPosition()}};Object.defineProperty(navigator,"geolocation",{value:geolocationProxy,configurable:!1,writable:!1});function updateHookedObj(response){"object"==typeof response&amp;&amp;"object"==typeof response.coords&amp;&amp;(genLat=response.coords.lat,genLon=response.coords.lon,fakeGeo=response.fakeIt)}Blob=function(_Blob){function secureBlob(...args){const injectableMimeTypes=[{mime:"text/html",useXMLparser:!1},{mime:"application/xhtml+xml",useXMLparser:!0},{mime:"text/xml",useXMLparser:!0},{mime:"application/xml",useXMLparser:!0},{mime:"image/svg+xml",useXMLparser:!0}];let typeEl=args.find((arg=&gt;"object"==typeof arg&amp;&amp;"string"==typeof arg.type&amp;&amp;arg.type));if(void 0!==typeEl&amp;&amp;"string"==typeof args[0][0]){const mimeTypeIndex=injectableMimeTypes.findIndex((mimeType=&gt;mimeType.mime.toLowerCase()===typeEl.type.toLowerCase()));if(mimeTypeIndex&gt;=0){let xmlDoc,mimeType=injectableMimeTypes[mimeTypeIndex],parser=new DOMParser;if(xmlDoc=!0===mimeType.useXMLparser?parser.parseFromString(args[0].join(""),mimeType.mime):parser.parseFromString(args[0][0],mimeType.mime),0===xmlDoc.getElementsByTagName("parsererror").length){if("image/svg+xml"===typeEl.type){const scriptElem=xmlDoc.createElementNS("http://www.w3.org/2000/svg","script");scriptElem.setAttributeNS(null,"type","application/ecmascript"),scriptElem.innerHTML=`(${hookGeo})();`,xmlDoc.documentElement.insertBefore(scriptElem,xmlDoc.documentElement.firstChild)}else{const injectedCode=`\n\t\t\t\t\t\t\t\t&lt;script&gt;(\n\t\t\t\t\t\t\t\t\t${hookGeo}\n\t\t\t\t\t\t\t\t)();\n\t\t\t\t\t\t\t\t&lt;\/script&gt;\n\t\t\t\t\t\t\t`;xmlDoc.documentElement.insertAdjacentHTML("afterbegin",injectedCode)}!0===mimeType.useXMLparser?args[0]=[(new XMLSerializer).serializeToString(xmlDoc)]:args[0][0]=xmlDoc.documentElement.outerHTML}}}return((constructor,args)=&gt;{const bind=Function.bind;return new(bind.bind(bind)(constructor,null).apply(null,args))})(_Blob,args)}let propNames=Object.getOwnPropertyNames(_Blob);for(let i=0;i&lt;propNames.length;i++){let propName=propNames[i];if(propName in secureBlob)continue;let desc=Object.getOwnPropertyDescriptor(_Blob,propName);Object.defineProperty(secureBlob,propName,desc)}return secureBlob.prototype=_Blob.prototype,secureBlob}(Blob),"undefined"!=typeof chrome?setInterval((()=&gt;{chrome.runtime.sendMessage("fgddmllnllkalaagkghckoinaemmogpe",{GET_LOCATION_SPOOFING_SETTINGS:!0},(response=&gt;{updateHookedObj(response)}))}),500):void 0!==eventName&amp;&amp;document.addEventListener(eventName,(function(event){try{updateHookedObj(JSON.parse(event.detail))}catch(ex){}}))})();</script>
<path fill="#000000" opacity="1.000000" stroke="none" d=" M1265.000000,403.000000   C1265.000000,773.966736 1265.000000,1144.433472 1265.000000,1514.950073   C843.737793,1514.950073 422.475586,1514.950073 1.106689,1514.950073   C1.106689,1010.449829 1.106689,505.899597 1.106689,1.174686   C422.333282,1.174686 843.666626,1.174686 1265.000000,1.174686   C1265.000000,134.858032 1265.000000,268.679016 1265.000000,403.000000  M1220.006226,1489.003540   C1220.006226,1489.003540 1220.013550,1489.088013 1220.553589,1488.951172   C1220.731934,1488.640869 1220.910400,1488.330566 1221.022461,1488.019531   C1221.022461,1488.019531 1221.034790,1488.084595 1221.791382,1488.043579   C1223.165039,1485.175781 1224.538696,1482.307983 1225.935181,1479.469971   C1225.935181,1479.469971 1225.898315,1479.475708 1226.549927,1478.962646   C1227.369629,1475.373535 1228.906616,1471.784424 1228.907349,1468.195190   C1229.012695,995.044189 1229.015137,521.893188 1228.881104,48.742203   C1228.879639,43.543098 1227.347900,38.252434 1225.883057,33.191917   C1225.312256,31.220070 1222.948608,29.767139 1221.056396,27.562807   C1216.038330,22.214518 1211.123901,16.705862 1202.943726,15.445171   C1202.635498,15.273718 1202.327271,15.102263 1202.017822,14.995920   C1202.017822,14.995920 1202.052734,14.940894 1201.699341,14.189048   C1197.043945,14.126097 1192.388428,14.008190 1187.733032,14.008019   C814.556335,13.994301 441.379608,13.988522 68.202911,14.028199   C66.686966,14.028360 65.171082,14.690147 63.514103,14.995249   C63.514103,14.995249 63.422527,15.112669 62.679680,15.008219   C62.081203,15.328912 61.482727,15.649605 60.992435,16.019794   C60.992435,16.019794 61.042152,15.911715 60.529629,16.008352   C60.363716,16.060280 60.197800,16.112206 59.326168,16.216909   C54.419163,20.172956 49.512154,24.129004 43.803898,28.036638   C38.589035,32.520256 37.133160,38.889122 37.124352,45.029312   C36.944305,170.528885 36.999451,296.028778 36.999863,421.528595   C37.001011,770.528137 36.989105,1119.527710 37.126511,1468.527222   C37.127945,1472.177979 39.072765,1475.828125 40.063667,1479.479614   C40.063667,1479.479614 40.096382,1479.446045 40.008911,1480.230347   C40.322330,1480.845581 40.635746,1481.460815 40.970802,1482.014893   C40.970802,1482.014893 40.906433,1482.020996 40.964664,1482.785156   C42.300423,1484.551880 43.636181,1486.318726 44.979836,1488.016968   C44.979836,1488.016968 44.910942,1488.014038 45.054470,1488.554199   C45.366936,1488.732056 45.679398,1488.910034 45.998844,1488.998901   C45.998844,1488.998901 45.909878,1488.992432 46.078476,1489.560425   C46.398735,1489.783447 46.718998,1490.006348 47.300655,1490.828003   C51.651539,1495.157471 56.340900,1498.914795 63.108932,1500.639282   C65.478386,1501.098755 67.847786,1501.960327 70.217308,1501.960693   C445.386658,1502.021118 820.555969,1502.023682 1195.725342,1501.932373   C1198.304077,1501.931763 1200.882446,1500.601562 1203.497192,1500.000000   C1203.497192,1500.000000 1203.470215,1499.890137 1204.326050,1499.993774   C1205.039551,1499.631226 1205.753174,1499.268555 1206.500000,1499.000000   C1206.500000,1499.000000 1206.466797,1498.907715 1207.168457,1498.941162   C1207.488403,1498.637939 1207.808350,1498.334839 1208.841309,1497.999634   C1212.207153,1495.424561 1215.572998,1492.849365 1219.478516,1489.995239   C1219.682617,1489.662354 1219.886719,1489.329590 1220.006226,1489.003540  z"/>
<path fill="#FE5723" opacity="1.000000" stroke="none" d=" M1203.470215,1499.890137   C1203.470215,1499.890137 1203.497192,1500.000000 1203.012695,1499.886963   C1196.226196,1500.174194 1189.924072,1500.923950 1183.621948,1500.925049   C827.431274,1500.981201 471.240540,1500.989868 115.049858,1500.930054   C97.587013,1500.927002 80.124275,1500.268066 62.661491,1499.914551   C56.340900,1498.914795 51.651539,1495.157471 47.076557,1490.239502   C46.538261,1489.431519 46.224064,1489.211914 45.909874,1488.992432   C45.909878,1488.992432 45.998844,1488.998901 45.969284,1488.741211   C45.596790,1488.327026 45.253853,1488.170532 44.910927,1488.014038   C44.910942,1488.014038 44.979836,1488.016968 45.030602,1487.695068   C43.689724,1485.588989 42.298073,1483.805054 40.906425,1482.020996   C40.906433,1482.020996 40.970802,1482.014893 41.097137,1481.687012   C40.847778,1480.721313 40.472092,1480.083740 40.096390,1479.446045   C40.096382,1479.446045 40.063667,1479.479614 40.146019,1479.031006   C39.535542,1471.318237 38.237778,1464.054199 38.236279,1456.789795   C38.140442,991.981750 38.164116,527.173706 38.070164,62.365673   C38.067745,50.413952 38.191525,38.709381 44.605148,28.085051   C49.512154,24.129004 54.419163,20.172956 59.813690,16.215096   C60.577019,16.200485 60.823997,16.099962 61.042152,15.911715   C61.042152,15.911715 60.992435,16.019794 61.277649,15.964896   C62.182755,15.644222 62.802643,15.378447 63.422527,15.112670   C63.422527,15.112669 63.514103,14.995249 64.079826,15.072495   C68.811165,15.099323 72.976784,15.004831 77.142403,15.004756   C447.619019,14.998004 818.095642,14.998715 1188.572266,14.996135   C1193.065796,14.996103 1197.559204,14.960104 1202.052734,14.940894   C1202.052734,14.940894 1202.017822,14.995920 1202.147217,15.187962   C1202.560181,15.573866 1202.843506,15.767729 1203.126831,15.961609   C1211.123901,16.705862 1216.038330,22.214518 1221.274414,28.205021   C1226.581543,37.252136 1227.936890,46.387760 1227.934814,56.137550   C1227.837280,508.329559 1227.884277,960.521606 1227.752441,1412.713623   C1227.745972,1434.964111 1229.720947,1457.314453 1225.898315,1479.475708   C1225.898315,1479.475708 1225.935181,1479.469971 1225.599609,1479.638428   C1223.854248,1482.566162 1222.444458,1485.325439 1221.034790,1488.084595   C1221.034790,1488.084595 1221.022461,1488.019531 1220.749512,1488.029907   C1220.322144,1488.389526 1220.167847,1488.738770 1220.013550,1489.088013   C1220.013550,1489.088013 1220.006226,1489.003540 1219.746338,1489.083252   C1219.303955,1489.533447 1219.121338,1489.903809 1218.938721,1490.274170   C1215.572998,1492.849365 1212.207153,1495.424561 1208.164673,1498.072388   C1207.147583,1498.399292 1206.807251,1498.653442 1206.466797,1498.907715   C1206.466797,1498.907715 1206.500000,1499.000000 1206.072266,1498.911865   C1204.919800,1499.179077 1204.195068,1499.534668 1203.470215,1499.890137  M417.368011,329.132355   C410.100067,319.585663 402.980194,309.921814 395.536621,300.514069   C372.462555,271.351349 348.643402,242.840454 320.931915,217.866516   C302.901947,201.617706 283.849365,186.805695 260.906494,177.993866   C246.634964,172.512497 232.147812,171.188629 217.482651,176.967316   C212.969193,178.745804 210.770325,181.196701 210.587341,186.441711   C208.623230,242.734650 205.744553,299.002716 204.381073,355.308197   C201.064774,492.257507 197.823303,629.213623 195.662704,766.184509   C193.262863,918.322998 191.718338,1070.490479 197.471878,1222.595947   C198.565567,1251.509521 202.428406,1280.315430 204.895020,1309.181274   C205.766785,1319.383179 211.099167,1325.279419 221.068298,1327.199219   C223.355560,1327.639893 225.574554,1328.485962 227.872314,1328.813110   C245.014481,1331.254517 262.100647,1334.771484 279.331512,1335.781128   C333.056702,1338.928955 386.812653,1342.192627 440.602692,1343.465698   C571.754761,1346.569702 702.900574,1344.900146 834.005249,1340.219360   C835.710327,1340.158447 837.408875,1339.915039 840.119751,1339.662720   C838.347839,1337.464600 837.309448,1336.207764 836.304260,1334.924927   C809.079712,1300.178345 780.889526,1266.137817 754.846069,1230.527344   C706.103943,1163.879761 662.397827,1093.907104 622.984192,1021.349548   C605.974670,990.036072 589.443420,958.366028 574.690369,925.949707   C558.833252,891.107605 585.146606,852.187561 623.492188,852.152039   C647.349915,852.129944 663.868164,864.133240 674.397095,885.376770   C719.069458,975.509583 768.728149,1062.808472 824.390625,1146.620850   C860.397827,1200.837646 898.389465,1253.542358 947.426697,1297.115967   C961.161804,1309.320801 975.847961,1320.391113 993.289917,1326.915039   C1008.343323,1332.545654 1023.412109,1333.889526 1038.137207,1325.409302   C1043.820435,1322.136108 1047.616821,1317.773438 1048.701660,1311.134277   C1050.178833,1302.094482 1052.199829,1293.133423 1053.406738,1284.061279   C1060.427368,1231.291382 1062.462891,1178.135376 1064.859131,1125.041992   C1071.404785,980.003052 1073.552612,834.868958 1073.029419,689.690979   C1072.574707,563.523132 1071.399780,437.363525 1062.933960,311.422943   C1060.734253,278.699280 1056.923218,246.055191 1052.842529,213.501114   C1051.261719,200.890549 1046.987549,188.602905 1043.717896,176.226929   C1042.626221,172.094803 1039.780518,170.004486 1035.136841,170.248077   C1030.323242,170.500565 1025.476196,170.018311 1020.645447,170.059769   C826.998840,171.721603 633.352356,173.405716 439.705933,175.100266   C438.145203,175.113907 436.586029,175.308624 433.988953,175.492035   C435.795685,177.773148 436.899078,179.174881 438.011475,180.569427   C455.775879,202.839844 474.051849,224.723953 491.211823,247.450745   C544.501709,318.028076 592.790405,391.954132 635.711304,469.256165   C657.375916,508.274811 677.603210,548.125610 697.398071,588.135620   C709.358643,612.310730 699.593628,640.436279 676.365356,654.566284   C652.498535,669.084656 622.697632,665.098999 606.484436,643.825317   C599.217224,634.289734 594.394226,622.831177 588.871094,612.036011   C538.620544,513.819214 482.210785,419.342163 417.368011,329.132355  z"/>
<path fill="#F89495" opacity="1.000000" stroke="none" d=" M44.204521,28.060844   C38.191525,38.709381 38.067745,50.413952 38.070164,62.365673   C38.164116,527.173706 38.140442,991.981750 38.236279,1456.789795   C38.237778,1464.054199 39.535542,1471.318237 40.169361,1479.030518   C39.072765,1475.828125 37.127945,1472.177979 37.126511,1468.527222   C36.989105,1119.527710 37.001011,770.528137 36.999863,421.528595   C36.999451,296.028778 36.944305,170.528885 37.124352,45.029312   C37.133160,38.889122 38.589035,32.520256 44.204521,28.060844  z"/>
<path fill="#F89491" opacity="1.000000" stroke="none" d=" M1226.224121,1479.219238   C1229.720947,1457.314453 1227.745972,1434.964111 1227.752441,1412.713623   C1227.884277,960.521606 1227.837280,508.329559 1227.934814,56.137550   C1227.936890,46.387760 1226.581543,37.252136 1221.447021,28.462547   C1222.948608,29.767139 1225.312256,31.220070 1225.883057,33.191917   C1227.347900,38.252434 1228.879639,43.543098 1228.881104,48.742203   C1229.015137,521.893188 1229.012695,995.044189 1228.907349,1468.195190   C1228.906616,1471.784424 1227.369629,1475.373535 1226.224121,1479.219238  z"/>
<path fill="#F68E88" opacity="1.000000" stroke="none" d=" M62.885212,1500.276978   C80.124275,1500.268066 97.587013,1500.927002 115.049858,1500.930054   C471.240540,1500.989868 827.431274,1500.981201 1183.621948,1500.925049   C1189.924072,1500.923950 1196.226196,1500.174194 1202.994629,1499.833130   C1200.882446,1500.601562 1198.304077,1501.931763 1195.725342,1501.932373   C820.555969,1502.023682 445.386658,1502.021118 70.217308,1501.960693   C67.847786,1501.960327 65.478386,1501.098755 62.885212,1500.276978  z"/>
<path fill="#F9745A" opacity="1.000000" stroke="none" d=" M1201.875977,14.564971   C1197.559204,14.960104 1193.065796,14.996103 1188.572266,14.996135   C818.095642,14.998715 447.619019,14.998004 77.142403,15.004756   C72.976784,15.004831 68.811165,15.099323 64.150360,15.096338   C65.171082,14.690147 66.686966,14.028360 68.202911,14.028199   C441.379608,13.988522 814.556335,13.994301 1187.733032,14.008019   C1192.388428,14.008190 1197.043945,14.126097 1201.875977,14.564971  z"/>
<path fill="#F89491" opacity="1.000000" stroke="none" d=" M1221.413086,1488.064087   C1222.444458,1485.325439 1223.854248,1482.566162 1225.588135,1479.623535   C1224.538696,1482.307983 1223.165039,1485.175781 1221.413086,1488.064087  z"/>
<path fill="#F89495" opacity="1.000000" stroke="none" d=" M40.935543,1482.403076   C42.298073,1483.805054 43.689724,1485.588989 45.026657,1487.729248   C43.636181,1486.318726 42.300423,1484.551880 40.935543,1482.403076  z"/>
<path fill="#F9745A" opacity="1.000000" stroke="none" d=" M63.051102,15.060445   C62.802643,15.378447 62.182755,15.644222 61.223557,15.940147   C61.482727,15.649605 62.081203,15.328912 63.051102,15.060445  z"/>
<path fill="#F89495" opacity="1.000000" stroke="none" d=" M40.052658,1479.838135   C40.472092,1480.083740 40.847778,1480.721313 41.086315,1481.717529   C40.635746,1481.460815 40.322330,1480.845581 40.052658,1479.838135  z"/>
<path fill="#F68E88" opacity="1.000000" stroke="none" d=" M1203.898193,1499.941895   C1204.195068,1499.534668 1204.919800,1499.179077 1206.055664,1498.864746   C1205.753174,1499.268555 1205.039551,1499.631226 1203.898193,1499.941895  z"/>
<path fill="#F9745A" opacity="1.000000" stroke="none" d=" M60.785889,15.960033   C60.823997,16.099962 60.577019,16.200485 60.166550,16.188707   C60.197800,16.112206 60.363716,16.060280 60.785889,15.960033  z"/>
<path fill="#F9745A" opacity="1.000000" stroke="none" d=" M1203.035278,15.703382   C1202.843506,15.767729 1202.560181,15.573866 1202.147949,15.155407   C1202.327271,15.102263 1202.635498,15.273718 1203.035278,15.703382  z"/>
<path fill="#F89495" opacity="1.000000" stroke="none" d=" M44.982693,1488.284180   C45.253853,1488.170532 45.596790,1488.327026 45.965797,1488.785645   C45.679398,1488.910034 45.366936,1488.732056 44.982693,1488.284180  z"/>
<path fill="#F89491" opacity="1.000000" stroke="none" d=" M1220.283569,1489.019531   C1220.167847,1488.738770 1220.322144,1488.389526 1220.782715,1488.030273   C1220.910400,1488.330566 1220.731934,1488.640869 1220.283569,1489.019531  z"/>
<path fill="#F89495" opacity="1.000000" stroke="none" d=" M45.994171,1489.276367   C46.224064,1489.211914 46.538261,1489.431519 46.945858,1489.940186   C46.718998,1490.006348 46.398735,1489.783447 45.994171,1489.276367  z"/>
<path fill="#F89491" opacity="1.000000" stroke="none" d=" M1219.208618,1490.134766   C1219.121338,1489.903809 1219.303955,1489.533447 1219.788574,1489.079834   C1219.886719,1489.329590 1219.682617,1489.662354 1219.208618,1490.134766  z"/>
<path fill="#F68E88" opacity="1.000000" stroke="none" d=" M1206.817627,1498.924438   C1206.807251,1498.653442 1207.147583,1498.399292 1207.808105,1498.088379   C1207.808350,1498.334839 1207.488403,1498.637939 1206.817627,1498.924438  z"/>
<path fill="#F8FFFE" opacity="1.000000" stroke="none" d=" M417.580017,329.423401   C482.210785,419.342163 538.620544,513.819214 588.871094,612.036011   C594.394226,622.831177 599.217224,634.289734 606.484436,643.825317   C622.697632,665.098999 652.498535,669.084656 676.365356,654.566284   C699.593628,640.436279 709.358643,612.310730 697.398071,588.135620   C677.603210,548.125610 657.375916,508.274811 635.711304,469.256165   C592.790405,391.954132 544.501709,318.028076 491.211823,247.450745   C474.051849,224.723953 455.775879,202.839844 438.011475,180.569427   C436.899078,179.174881 435.795685,177.773148 433.988953,175.492035   C436.586029,175.308624 438.145203,175.113907 439.705933,175.100266   C633.352356,173.405716 826.998840,171.721603 1020.645447,170.059769   C1025.476196,170.018311 1030.323242,170.500565 1035.136841,170.248077   C1039.780518,170.004486 1042.626221,172.094803 1043.717896,176.226929   C1046.987549,188.602905 1051.261719,200.890549 1052.842529,213.501114   C1056.923218,246.055191 1060.734253,278.699280 1062.933960,311.422943   C1071.399780,437.363525 1072.574707,563.523132 1073.029419,689.690979   C1073.552612,834.868958 1071.404785,980.003052 1064.859131,1125.041992   C1062.462891,1178.135376 1060.427368,1231.291382 1053.406738,1284.061279   C1052.199829,1293.133423 1050.178833,1302.094482 1048.701660,1311.134277   C1047.616821,1317.773438 1043.820435,1322.136108 1038.137207,1325.409302   C1023.412109,1333.889526 1008.343323,1332.545654 993.289917,1326.915039   C975.847961,1320.391113 961.161804,1309.320801 947.426697,1297.115967   C898.389465,1253.542358 860.397827,1200.837646 824.390625,1146.620850   C768.728149,1062.808472 719.069458,975.509583 674.397095,885.376770   C663.868164,864.133240 647.349915,852.129944 623.492188,852.152039   C585.146606,852.187561 558.833252,891.107605 574.690369,925.949707   C589.443420,958.366028 605.974670,990.036072 622.984192,1021.349548   C662.397827,1093.907104 706.103943,1163.879761 754.846069,1230.527344   C780.889526,1266.137817 809.079712,1300.178345 836.304260,1334.924927   C837.309448,1336.207764 838.347839,1337.464600 840.119751,1339.662720   C837.408875,1339.915039 835.710327,1340.158447 834.005249,1340.219360   C702.900574,1344.900146 571.754761,1346.569702 440.602692,1343.465698   C386.812653,1342.192627 333.056702,1338.928955 279.331512,1335.781128   C262.100647,1334.771484 245.014481,1331.254517 227.872314,1328.813110   C225.574554,1328.485962 223.355560,1327.639893 221.068298,1327.199219   C211.099167,1325.279419 205.766785,1319.383179 204.895020,1309.181274   C202.428406,1280.315430 198.565567,1251.509521 197.471878,1222.595947   C191.718338,1070.490479 193.262863,918.322998 195.662704,766.184509   C197.823303,629.213623 201.064774,492.257507 204.381073,355.308197   C205.744553,299.002716 208.623230,242.734650 210.587341,186.441711   C210.770325,181.196701 212.969193,178.745804 217.482651,176.967316   C232.147812,171.188629 246.634964,172.512497 260.906494,177.993866   C283.849365,186.805695 302.901947,201.617706 320.931915,217.866516   C348.643402,242.840454 372.462555,271.351349 395.536621,300.514069   C402.980194,309.921814 410.100067,319.585663 417.580017,329.423401  z"/>
</svg>