<svg xmlns="http://www.w3.org/2000/svg" xmlns:xlink="http://www.w3.org/1999/xlink" width="500" zoomAndPan="magnify" viewBox="0 0 375 374.999991" height="500" preserveAspectRatio="xMidYMid meet" version="1.0"><defs><g/><clipPath id="c1e1128ff2"><path d="M 0 23.4375 L 375 23.4375 L 375 374.296875 L 0 374.296875 Z M 0 23.4375 " clip-rule="nonzero"/></clipPath><clipPath id="a074d0f66e"><path d="M 14.867188 79.460938 C -15.539062 133.023438 5.882812 185.15625 32.800781 212.824219 L 190.199219 374.296875 L 344.273438 213.402344 C 369.308594 183.636719 378.90625 152.0625 373.574219 116.90625 C 366.214844 68.273438 328.734375 30.539062 282.433594 25.152344 C 254.035156 21.984375 226.601562 30.476562 205.195312 49.5 C 199.429688 54.617188 194.28125 60.339844 189.792969 66.558594 C 184.464844 59.480469 178.21875 53 171.15625 47.257812 C 146.539062 27.253906 115.199219 19.578125 85.09375 25.488281 C 56.582031 31.375 30.992188 51.042969 14.867188 79.460938 Z M 14.867188 79.460938 " clip-rule="nonzero"/></clipPath></defs><g clip-path="url(#c1e1128ff2)"><g clip-path="url(#a074d0f66e)"><path fill="#c00606" d="M 0 23.4375 L 375.527344 23.4375 L 375.527344 374.296875 L 0 374.296875 Z M 0 23.4375 " fill-opacity="1" fill-rule="nonzero"/></g></g><g fill="#ffffff" fill-opacity="1"><g transform="translate(132.709196, 249.187484)"><g><path d="M 56.65625 -32.90625 L 88.625 -32.90625 C 93.613281 -32.90625 97.195312 -32.28125 99.375 -31.03125 C 101.550781 -29.789062 103.015625 -27.984375 103.765625 -25.609375 C 104.515625 -23.242188 104.890625 -20.128906 104.890625 -16.265625 C 104.890625 -12.398438 104.515625 -9.28125 103.765625 -6.90625 C 103.015625 -4.539062 101.703125 -2.890625 99.828125 -1.953125 C 97.960938 -1.023438 96.3125 -0.46875 94.875 -0.28125 C 93.445312 -0.09375 91.300781 0 88.4375 0 L 20.9375 0 C 16.570312 0 12.769531 -1.617188 9.53125 -4.859375 C 6.289062 -8.097656 4.671875 -11.960938 4.671875 -16.453125 C 4.671875 -20.941406 6.289062 -24.773438 9.53125 -27.953125 C 12.769531 -31.128906 17.753906 -35.707031 24.484375 -41.6875 C 31.222656 -47.675781 37.332031 -53.066406 42.8125 -57.859375 C 48.300781 -62.660156 51.296875 -65.3125 51.796875 -65.8125 L 25.421875 -65.8125 C 18.316406 -65.8125 13.832031 -66.992188 11.96875 -69.359375 C 9.84375 -72.109375 8.78125 -75.722656 8.78125 -80.203125 C 8.78125 -84.691406 9.09375 -88.023438 9.71875 -90.203125 C 10.34375 -92.390625 11.09375 -94.007812 11.96875 -95.0625 C 12.84375 -96.125 14.085938 -96.96875 15.703125 -97.59375 C 17.828125 -98.21875 21.066406 -98.53125 25.421875 -98.53125 L 86.1875 -98.53125 C 90.550781 -98.53125 94.351562 -96.972656 97.59375 -93.859375 C 100.832031 -90.742188 102.453125 -86.847656 102.453125 -82.171875 C 102.453125 -77.492188 100.582031 -73.347656 96.84375 -69.734375 C 93.101562 -66.117188 79.707031 -53.84375 56.65625 -32.90625 Z M 56.65625 -32.90625 "/></g></g></g></svg>